<?xml version="1.0" encoding="utf-8"?>
<!-- Generator: Adobe Illustrator 21.0.2, SVG Export Plug-In . SVG Version: 6.00 Build 0)  -->
<svg version="1.1" id="e822bf30-70d1-4d14-abcb-f05324d0df35"
	 xmlns="http://www.w3.org/2000/svg" xmlns:xlink="http://www.w3.org/1999/xlink" x="0px" y="0px" viewBox="0 0 44.9 23.1"
	 style="enable-background:new 0 0 44.9 23.1;" xml:space="preserve">
<style type="text/css">
	.st0{fill:#66fcf1;stroke:#66fcf1;stroke-miterlimit:10;}
	.st1{fill:#e5e6e7;stroke:#e5e6e7;stroke-miterlimit:10;}
</style>
<title>Untitled-1</title>
<path class="st0" d="M1.7,19.1l3.4,2.3l-0.5,0.9l-4.1-2.8v-16l4.1-2.8l0.5,1L1.7,4V19.1z"/>
<path class="st1" d="M15.5,7.6v1.7l-0.4-0.2L14.8,9h-0.2h-0.4c-1.2,0-2.3,0.7-2.9,1.7c-0.7,1-1,2.2-1,3.5v6.2H8.6V7.6h1.6l0.1,2.2
	c0.3-0.5,0.7-1,1.1-1.4c0.7-0.7,1.6-1,2.6-1h0.8C15,7.5,15.2,7.5,15.5,7.6z"/>
<path class="st1" d="M36.2,12.2v8.2h-1.8v-8.6c0-0.8-0.3-1.6-0.9-2.2c-0.5-0.5-1.2-0.7-1.9-0.7c-1.1,0-2.2,0.6-2.9,1.5
	c-0.8,1-1.3,2.3-1.2,3.6v6.5h-1.8v-8.6c0-1.6-1.3-2.8-2.8-2.9c-1.1,0-2.1,0.5-2.8,1.4c-0.9,1.1-1.4,2.4-1.3,3.8v6.4H17v-13h1.6
	l0.1,2c0.5-0.8,1.2-1.4,2-1.8c0.7-0.4,1.5-0.5,2.3-0.5c1.1,0,2.2,0.3,3.1,1.1c0.5,0.4,1,1,1.2,1.6c0.3-0.6,0.8-1.2,1.4-1.6
	c0.9-0.7,2-1,3.1-1C33,7.3,34.1,7.8,35,8.6C35.8,9.5,36.2,10.8,36.2,12.2z"/>
<path class="st0" d="M43.2,4l-3.4-2.3l0.5-0.9l4.1,2.8v16.1l-4.1,2.8l-0.5-1l3.4-2.3V4z"/>
</svg>
